<?xml version="1.0" standalone="no"?>
<!DOCTYPE svg PUBLIC "-//W3C//DTD SVG 20010904//EN"
 "http://www.w3.org/TR/2001/REC-SVG-20010904/DTD/svg10.dtd">
<svg version="1.0" xmlns="http://www.w3.org/2000/svg"
 width="2560.000000pt" height="2560.000000pt" viewBox="0 0 2560.000000 2560.000000"
 preserveAspectRatio="xMidYMid meet">
<metadata>
Created by potrace 1.11, written by Peter Selinger 2001-2013
</metadata>
<g transform="translate(0.000000,2560.000000) scale(0.100000,-0.100000)"
fill="#000000" stroke="none">
<path d="M3341 23548 c-7 -18 -536 -1541 -1176 -3383 -1147 -3297 -1165 -3351
-1165 -3425 0 -109 16 -228 50 -365 89 -360 292 -686 569 -916 l101 -84 0
-6667 0 -6668 11055 0 11055 0 0 6673 0 6672 41 29 c22 15 81 67 131 115 317
301 503 693 539 1133 l11 133 -1179 3390 -1178 3390 -1414 3 -1413 2 6 -32 c3
-18 375 -1549 826 -3402 685 -2814 820 -3381 820 -3439 0 -226 94 -550 226
-779 118 -205 322 -431 504 -560 152 -108 375 -216 543 -263 l57 -16 -2 -5777
-3 -5777 -1330 0 -1330 0 -3 3357 -2 3358 -2980 0 -2980 0 0 -3360 0 -3360
-5257 2 -5258 3 -3 5776 -2 5776 74 21 c283 83 554 248 766 469 136 141 224
265 310 438 113 228 159 397 184 678 14 146 44 273 806 3402 435 1788 804
3303 819 3368 l28 117 -1417 0 -1418 0 -11 -32z"/>
<path d="M7355 23568 c-3 -7 -309 -1529 -680 -3381 -736 -3672 -690 -3422
-660 -3634 113 -797 751 -1420 1548 -1513 158 -19 409 -8 563 24 616 129 1121
577 1319 1169 49 147 73 268 86 437 11 139 642 6749 655 6858 l6 52 -1416 0
c-1124 0 -1418 -3 -1421 -12z"/>
<path d="M11356 23498 c-4 -46 -83 -1554 -177 -3353 -183 -3515 -182 -3477
-139 -3689 135 -679 658 -1223 1325 -1379 170 -40 287 -51 474 -44 268 10 464
59 706 177 572 279 944 834 990 1475 4 62 -49 1140 -169 3448 -97 1847 -176
3379 -176 3403 l0 44 -1414 0 -1414 0 -6 -82z"/>
<path d="M15365 23543 c14 -98 645 -6789 645 -6839 0 -31 7 -104 16 -161 79
-533 388 -992 858 -1273 190 -114 458 -204 688 -230 148 -18 401 -8 542 20
551 109 1012 465 1255 970 102 213 150 389 172 631 l11 124 -672 3350 c-369
1843 -676 3371 -682 3398 l-10 47 -1414 0 -1414 0 5 -37z"/>
<path d="M4780 9800 l0 -3110 3110 0 3110 0 0 3110 0 3110 -3110 0 -3110 0 0
-3110z"/>
</g>
</svg>
