<svg xmlns="http://www.w3.org/2000/svg" width="50.735" height="50.735" viewBox="0 0 50.735 50.735"><defs><style>.a{fill:#f1eceb;stroke-width:0.735px;}.a,.c{stroke:#551700;stroke-linecap:round;stroke-linejoin:round;}.b{fill:#551700;}.c{fill:none;stroke-width:1.464px;stroke-dasharray:0 3.905;}</style></defs><g transform="translate(0.368 0.367)"><path class="a" d="M1966.344,1452.279a25,25,0,1,1-25-25A25,25,0,0,1,1966.344,1452.279Z" transform="translate(-1916.344 -1427.279)"/><g transform="translate(-1916.344 -1427.279)"><path class="b" d="M1947.844,1452.454a.414.414,0,0,1-.13.3l-.651.651a.412.412,0,0,1-.3.13.407.407,0,0,1-.3-.13l-5.12-5.119-5.119,5.119a.41.41,0,0,1-.6,0l-.651-.651a.408.408,0,0,1,0-.6l6.069-6.07a.41.41,0,0,1,.6,0l6.071,6.07A.413.413,0,0,1,1947.844,1452.454Z"/></g><g transform="translate(-1916.344 -1427.279)"><circle class="c" cx="20.5" cy="20.5" r="20.5" transform="translate(1920.844 1431.779)"/></g></g></svg>