<svg xmlns="http://www.w3.org/2000/svg" width="20" height="20" viewBox="0 0 20 20">
  <g id="btn_google_light_normal" data-name="btn google light normal" transform="translate(-5433.66 -575.259)">
    <g id="logo_googleg_48dp" data-name="logo googleg 48dp">
      <path id="Shape" d="M5453.26,585.486a11.457,11.457,0,0,0-.182-2.046h-9.418v3.869h5.382a4.6,4.6,0,0,1-2,3.018v2.509h3.231a9.753,9.753,0,0,0,2.982-7.35Z" fill="#4285f4" fill-rule="evenodd"/>
      <path id="Shape-2" data-name="Shape" d="M5443.66,595.259a9.546,9.546,0,0,0,6.618-2.423l-3.231-2.509a6.034,6.034,0,0,1-8.982-3.168h-3.341v2.591a10,10,0,0,0,8.936,5.509Z" fill="#34a853" fill-rule="evenodd"/>
      <path id="Shape-3" data-name="Shape" d="M5438.065,587.159a5.906,5.906,0,0,1,0-3.8v-2.591h-3.341a10.01,10.01,0,0,0,0,8.982l3.341-2.591Z" fill="#fbbc05" fill-rule="evenodd"/>
      <path id="Shape-4" data-name="Shape" d="M5443.66,579.236a5.4,5.4,0,0,1,3.823,1.495l2.868-2.868a9.613,9.613,0,0,0-6.691-2.6,10,10,0,0,0-8.936,5.509l3.341,2.591a5.959,5.959,0,0,1,5.6-4.123Z" fill="#ea4335" fill-rule="evenodd"/>
      <path id="Shape-5" data-name="Shape" d="M5433.66,575.259h20v20h-20Z" fill="none"/>
    </g>
  </g>
</svg>
