<svg id="icon-comment" xmlns="http://www.w3.org/2000/svg" width="21" height="21" viewBox="0 0 21 21">
  <g id="グループ_3821" data-name="グループ 3821" transform="translate(2.631 1.35)">
    <path id="パス_25225" data-name="パス 25225" d="M4790.639,612.5a7.868,7.868,0,0,0-.676,15.707V630.8l5.736-4.4a7.869,7.869,0,0,0-5.06-13.9Zm-4.131,8.918a1.049,1.049,0,1,1,1.049-1.049A1.049,1.049,0,0,1,4786.508,621.418Zm4.131,0a1.049,1.049,0,1,1,1.049-1.049A1.049,1.049,0,0,1,4790.639,621.418Zm4.131,0a1.049,1.049,0,1,1,1.05-1.049A1.049,1.049,0,0,1,4794.771,621.418Z" transform="translate(-4782.771 -612.5)" fill="#8c6253"/>
  </g>
  <rect id="長方形_2002" data-name="長方形 2002" width="21" height="21" fill="none"/>
</svg>
