<svg xmlns="http://www.w3.org/2000/svg" width="62" height="62" viewBox="0 0 62 62">
  <g id="グループ_3938" data-name="グループ 3938" transform="translate(-1335 -886)">
    <g id="icon-シェフ" transform="translate(0 -1)">
      <g id="グループ_3890" data-name="グループ 3890">
        <g id="グループ_3889" data-name="グループ 3889" transform="translate(119 5)">
          <circle id="楕円形_22" data-name="楕円形 22" cx="31" cy="31" r="31" transform="translate(1216 882)" fill="#fbf9f8"/>
          <g id="グループ_3888" data-name="グループ 3888" transform="translate(-4004.919 198.225)">
            <path id="パス_25233" data-name="パス 25233" d="M5265.783,729.594a5.345,5.345,0,0,0-.969-1.663,6.289,6.289,0,0,0-1.161-1.051,11.32,11.32,0,0,0-2.328-1.2c-.6-.234-1.178-.442-1.718-.642-.408-.157-.787-.311-1.128-.477a5.265,5.265,0,0,1-.592-.331l0,0a2.8,2.8,0,0,0-1.131-2.463v0c.017-.433.1-.374.19-.833a6.759,6.759,0,0,0,.907-1.331,15.08,15.08,0,0,0,.817-1.863,5.228,5.228,0,0,0,.515-.286,3.76,3.76,0,0,0,1.055-1.106,5.839,5.839,0,0,0,.716-1.812,2.991,2.991,0,0,0,.063-.6,2.782,2.782,0,0,0-.264-1.174,3.3,3.3,0,0,0-.429-.685c.089-.318.191-.748.284-1.255.018-.089.034-.179.047-.272l0-.034V709.26c0-1.034-.094-2.54-.222-4.173-.089-1.1-.191-2.259-.289-3.369-.128-1.379-.255-2.676-.349-3.684-.051-.5-.093-.935-.115-1.263-.017-.166-.025-.3-.034-.413a1.452,1.452,0,0,1-.008-.213,1.221,1.221,0,0,0-.213-.668,2.283,2.283,0,0,0-.953-.752,8.788,8.788,0,0,0-2.475-.69,25.341,25.341,0,0,0-3.88-.259,19.969,19.969,0,0,0-5.343.575,4.778,4.778,0,0,0-1.485.65,1.814,1.814,0,0,0-.477.477,1.193,1.193,0,0,0-.212.668c0,.026,0,.107-.008.213-.026.413-.107,1.234-.205,2.272-.136,1.4-.31,3.208-.463,4.985-.018.2-.034.4-.052.6-.157,1.85-.275,3.608-.293,4.824v.251l0,.154v.068c0,.055,0,.11,0,.165l0,.034,0,.191h.03c.029.179.059.344.089.5a.9.9,0,0,0,0,.106l0,.03a1.462,1.462,0,0,0,.013.2c.013.12.026.23.038.336,0,.043.01.09.014.124v.123l.14.621a3.154,3.154,0,0,0-.511.74,2.793,2.793,0,0,0-.3,1.247,2.658,2.658,0,0,0,.068.6,6.282,6.282,0,0,0,.429,1.293,4.021,4.021,0,0,0,.962,1.327,3.6,3.6,0,0,0,.89.583,14.866,14.866,0,0,0,.816,1.863,6.8,6.8,0,0,0,.906,1.331c.089.442.17.4.191.778v0a2.68,2.68,0,0,0-1.246,2.571l0,.02h0a8.258,8.258,0,0,1-.992.489c-.667.285-1.446.544-2.238.851a13.946,13.946,0,0,0-1.777.821,7.484,7.484,0,0,0-1.238.881,5.506,5.506,0,0,0-1.425,1.952,7.152,7.152,0,0,0-.544,2.889,1.226,1.226,0,0,0,.089.442,1.614,1.614,0,0,0,.2.353,2.644,2.644,0,0,0,.6.575,7.257,7.257,0,0,0,1.727.893,21.4,21.4,0,0,0,4.476,1.051,49.634,49.634,0,0,0,7.058.442,52.292,52.292,0,0,0,6.271-.336,28.626,28.626,0,0,0,3.4-.6,14.852,14.852,0,0,0,1.876-.57,7.971,7.971,0,0,0,1.056-.468,5.106,5.106,0,0,0,.612-.379,2.845,2.845,0,0,0,.646-.621,1.3,1.3,0,0,0,.2-.37,1.14,1.14,0,0,0,.081-.412A7.4,7.4,0,0,0,5265.783,729.594Zm-26.626,2.685a.343.343,0,0,1-.051-.089l0-.012a6.133,6.133,0,0,1,.349-2.175,4.3,4.3,0,0,1,.761-1.31,5.055,5.055,0,0,1,.945-.851,9.969,9.969,0,0,1,2.084-1.063c.562-.225,1.141-.425,1.7-.638.422-.162.834-.328,1.226-.519.124-.06.243-.12.362-.187h0a4.086,4.086,0,0,0,1.965,1.7l-2.817,1.916V734.4a29.349,29.349,0,0,1-3.007-.538,13.97,13.97,0,0,1-1.74-.532,7.8,7.8,0,0,1-.919-.408,3.981,3.981,0,0,1-.477-.293A1.5,1.5,0,0,1,5239.157,732.279Zm7.236-15.451-.264-.1a2.5,2.5,0,0,1-.523-.264,2.464,2.464,0,0,1-.715-.749,4.569,4.569,0,0,1-.562-1.442,1.666,1.666,0,0,1-.038-.349,1.6,1.6,0,0,1,.173-.723,2.17,2.17,0,0,1,.388-.536,7.374,7.374,0,0,0,.579.817c.264.268.3-.357.174-1.06a3.741,3.741,0,0,1,.378-1.884c.077-.2.157-.412.239-.638h11.8c.093.2.179.422.255.638a20.247,20.247,0,0,1,.77,2.854s.136-.259.34-.6a1.841,1.841,0,0,1,.3.46,1.561,1.561,0,0,1,.153.676,1.733,1.733,0,0,1-.039.349,5,5,0,0,1-.349,1.05,2.845,2.845,0,0,1-.676.944,2.243,2.243,0,0,1-.775.459l-.259.1-.093.259a14.775,14.775,0,0,1-.834,1.957,5.727,5.727,0,0,1-.839,1.2l-.115.109-.034.162a4.178,4.178,0,0,0-.255,1.433c0,.251.013.515.038.779a3.2,3.2,0,0,0,.222.889,1.759,1.759,0,0,0,.1.207,4.157,4.157,0,0,1-2.726,1.537.649.649,0,0,0-.623-.471h-1.156a.651.651,0,0,0-.624.471,4.226,4.226,0,0,1-2.654-1.445l.054-.087a3.162,3.162,0,0,0,.319-1.1c.025-.264.038-.527.038-.779a4.2,4.2,0,0,0-.255-1.433l-.034-.162-.115-.119a5.7,5.7,0,0,1-.838-1.2,15.347,15.347,0,0,1-.834-1.957Zm-.6-19.956c.018-.17.026-.315.035-.434s.012-.2.012-.272v0a1.136,1.136,0,0,1,.378-.281,6.9,6.9,0,0,1,2.106-.608,24.07,24.07,0,0,1,3.8-.263,19.349,19.349,0,0,1,5.007.523,3.768,3.768,0,0,1,1.106.473.664.664,0,0,1,.169.157l0,.008c0,.078,0,.161.009.268.029.447.106,1.268.208,2.311.149,1.561.35,3.616.511,5.564,0,.047.008.09.013.132.093,1.128.169,2.22.221,3.153.013.22.021.433.034.638,0,.051,0,.157,0,.289,0,.077,0,.153,0,.23,0,.107,0,.209,0,.3h-14.583c0-.064,0-.221,0-.383,0-.125,0-.252.006-.344l0-.09c.008-.2.017-.417.029-.638.073-1.438.222-3.25.379-5,.025-.255.046-.515.072-.761.127-1.378.255-2.676.349-3.689C5245.725,697.646,5245.759,697.208,5245.788,696.872Zm.316,32.4,2.868-1.95a7.282,7.282,0,0,0,1.937.392l-.6,5.134h3.39l-.6-5.134s3.223-.11,4.408-2.334l0,0a8.633,8.633,0,0,0,1.021.494c.727.306,1.506.565,2.264.863a12.543,12.543,0,0,1,1.62.749,6.131,6.131,0,0,1,1.042.736,4.365,4.365,0,0,1,1.127,1.544,5.936,5.936,0,0,1,.443,2.408l-.03.063a1.209,1.209,0,0,1-.285.3,3.5,3.5,0,0,1-.548.357,9.228,9.228,0,0,1-1.643.668,23.946,23.946,0,0,1-4.147.847,51.37,51.37,0,0,1-6.309.348,52.159,52.159,0,0,1-5.96-.309v-5.182Z" fill="#8c6253"/>
            <path id="パス_25234" data-name="パス 25234" d="M5256.271,763.519a.433.433,0,1,0,.434.434A.434.434,0,0,0,5256.271,763.519Z" transform="translate(-8.715 -33.923)" fill="#8c6253"/>
            <path id="パス_25235" data-name="パス 25235" d="M5256.271,770a.434.434,0,1,0,.434.434A.433.433,0,0,0,5256.271,770Z" transform="translate(-8.715 -37.074)" fill="#8c6253"/>
            <path id="パス_25236" data-name="パス 25236" d="M5274.014,764.386a.433.433,0,1,0-.435-.433A.434.434,0,0,0,5274.014,764.386Z" transform="translate(-17.345 -33.923)" fill="#8c6253"/>
            <path id="パス_25237" data-name="パス 25237" d="M5274.014,770.863a.434.434,0,1,0-.435-.433A.435.435,0,0,0,5274.014,770.863Z" transform="translate(-17.345 -37.074)" fill="#8c6253"/>
          </g>
        </g>
      </g>
    </g>
  </g>
</svg>
