<svg xmlns="http://www.w3.org/2000/svg" width="23" height="19.714" viewBox="0 0 23 19.714">
  <g id="icon-フォローする" transform="translate(-1049.459 -274.108)">
    <g id="グループ_3829" data-name="グループ 3829" transform="translate(1049.459 274.108)">
      <path id="パス_25226" data-name="パス 25226" d="M4919.372,638.035a.768.768,0,0,1-.565-.231l-8.009-7.726a4.2,4.2,0,0,1-.353-.334q-.224-.231-.712-.841a11.26,11.26,0,0,1-.873-1.252,7.758,7.758,0,0,1-.686-1.553,5.591,5.591,0,0,1-.3-1.772,5.887,5.887,0,0,1,1.63-4.415,6.172,6.172,0,0,1,4.5-1.591,5.114,5.114,0,0,1,1.624.275,6.623,6.623,0,0,1,1.541.745q.71.469,1.225.879a12.111,12.111,0,0,1,.976.873,11.46,11.46,0,0,1,.975-.873q.513-.41,1.227-.879a6.572,6.572,0,0,1,1.539-.745,5.112,5.112,0,0,1,1.624-.275,6.175,6.175,0,0,1,4.5,1.591,5.887,5.887,0,0,1,1.63,4.415q0,2.836-2.939,5.776l-8,7.7A.768.768,0,0,1,4919.372,638.035Z" transform="translate(-4907.871 -618.321)" fill="#c4afa7"/>
    </g>
  </g>
</svg>
