<svg xmlns="http://www.w3.org/2000/svg" width="24" height="19.506" viewBox="0 0 24 19.506">
  <path id="パス_25177" data-name="パス 25177" d="M5397.262,579.878a10,10,0,0,1-2.825.775,4.958,4.958,0,0,0,2.163-2.723,10.165,10.165,0,0,1-3.127,1.184,4.919,4.919,0,0,0-8.511,3.358,5.033,5.033,0,0,0,.127,1.124,13.93,13.93,0,0,1-10.14-5.126,4.82,4.82,0,0,0-.666,2.475,4.92,4.92,0,0,0,2.187,4.095,4.9,4.9,0,0,1-2.227-.616v.061a4.922,4.922,0,0,0,3.945,4.827,4.966,4.966,0,0,1-2.212.085,4.936,4.936,0,0,0,4.6,3.417,9.868,9.868,0,0,1-6.1,2.1,10.44,10.44,0,0,1-1.17-.067,14.005,14.005,0,0,0,21.555-11.776c0-.209,0-.42-.015-.63a9.939,9.939,0,0,0,2.46-2.548Z" transform="translate(-5373.309 -577.555)" fill="#2aa9e0"/>
</svg>
