<svg id="icon-レビュー" xmlns="http://www.w3.org/2000/svg" width="30" height="30" viewBox="0 0 30 30">
  <g id="グループ_3821" data-name="グループ 3821" transform="translate(3.759 1.929)">
    <path id="パス_25225" data-name="パス 25225" d="M4794.012,612.5a11.24,11.24,0,0,0-.966,22.438v3.7l8.194-6.293a11.241,11.241,0,0,0-7.229-19.85Zm-5.9,12.74a1.5,1.5,0,1,1,1.5-1.5A1.5,1.5,0,0,1,4788.11,625.24Zm5.9,0a1.5,1.5,0,1,1,1.5-1.5A1.5,1.5,0,0,1,4794.012,625.24Zm5.9,0a1.5,1.5,0,1,1,1.5-1.5A1.5,1.5,0,0,1,4799.913,625.24Z" transform="translate(-4782.771 -612.5)" fill="#551700"/>
  </g>
  <rect id="長方形_2002" data-name="長方形 2002" width="30" height="30" fill="none"/>
</svg>
