<svg id="グループ_3840" data-name="グループ 3840" xmlns="http://www.w3.org/2000/svg" width="30" height="30" viewBox="0 0 30 30">
  <g id="グループ_3839" data-name="グループ 3839" transform="translate(4.056 3)">
    <path id="パス_25227" data-name="パス 25227" d="M4682.851,615h-2.786a1.448,1.448,0,0,0-1.448,1.448v3.479h4.234Z" transform="translate(-4675.122 -614.999)" fill="#551700"/>
    <rect id="長方形_2003" data-name="長方形 2003" width="4.235" height="4.927" transform="translate(8.753 0)" fill="#551700"/>
    <path id="パス_25228" data-name="パス 25228" d="M4707.392,616.447a1.448,1.448,0,0,0-1.448-1.448h-2.787v4.927h4.234Z" transform="translate(-4689.146 -614.999)" fill="#551700"/>
    <path id="パス_25229" data-name="パス 25229" d="M4692.326,637.848l-2.055-6.834a.6.6,0,0,0-.574-.426h-.988v-1.566h-4.235v3.219l-1.024.409v-3.627h-4.234v4.021l-1.024-.544v-3.477h-4.233v1.764h-.638a.606.606,0,0,0-.565.391l-2.253,6.01a.6.6,0,0,0,.6.812l2.215-.15v7.632a1.531,1.531,0,0,0,1.533,1.533h13.059a1.531,1.531,0,0,0,1.533-1.533v-7.11l2.242.249a.605.605,0,0,0,.525-.213A.6.6,0,0,0,4692.326,637.848Zm-11.731-1.7-1.226.084-.153.009-1.024.069-4.233.285-.638.042-1.364.093,1.779-4.748h.938l3.519,1.869,1.409.751.778.411h0l.021.012.142.075.186.1,1.295.688.271.144Zm4.429.469c.033-.15.674.022,1.168.172Zm4.42.535-.736-.081-2.213-.249-1.91-.932-.111-.06-1.024-.544-.487-.258-.958-.508,1.433-.574h.012v-.006l1.024-.408,4.234-1.692.132-.054h.409l1.665,5.532Z" transform="translate(-4670.463 -623.012)" fill="#551700"/>
  </g>
  <rect id="長方形_2004" data-name="長方形 2004" width="30" height="30" fill="none"/>
</svg>
