<svg id="icon-tel" xmlns="http://www.w3.org/2000/svg" width="33" height="25" viewBox="0 0 33 25">
  <g id="icon-tel-2" data-name="icon-tel">
    <rect id="長方形_2005" data-name="長方形 2005" width="25" height="25" fill="none"/>
    <g id="グループ_3854" data-name="グループ 3854" transform="translate(3.037 3.037)">
      <path id="パス_25230" data-name="パス 25230" d="M5135.43,631.451a4.432,4.432,0,0,1-.135.947,5.251,5.251,0,0,1-.282.92,3.6,3.6,0,0,1-1.639,1.425,4.993,4.993,0,0,1-3.207.639,5.825,5.825,0,0,1-.772-.168c-.288-.081-.5-.146-.639-.195s-.387-.141-.746-.275-.578-.215-.659-.242a12.151,12.151,0,0,1-2.352-1.116,22.569,22.569,0,0,1-6.452-6.452,12.109,12.109,0,0,1-1.115-2.353q-.041-.121-.243-.659t-.275-.746q-.074-.208-.2-.638a5.876,5.876,0,0,1-.168-.773,5.293,5.293,0,0,1-.046-.706,5.213,5.213,0,0,1,.685-2.5,3.6,3.6,0,0,1,1.426-1.64,5.288,5.288,0,0,1,.92-.282,4.439,4.439,0,0,1,.948-.135.755.755,0,0,1,.282.04q.242.081.713,1.021.147.256.4.726t.471.853c.143.256.282.5.417.719.027.036.1.148.235.336a3.72,3.72,0,0,1,.289.478.887.887,0,0,1,.094.383,1.118,1.118,0,0,1-.383.672,6.638,6.638,0,0,1-.833.739,7.929,7.929,0,0,0-.833.713,1.023,1.023,0,0,0-.384.618.891.891,0,0,0,.068.3,2.764,2.764,0,0,0,.114.276c.032.063.094.17.188.322s.146.238.155.256a13.329,13.329,0,0,0,5.5,5.5q.026.013.256.155c.151.094.26.157.322.188a2.762,2.762,0,0,0,.276.114.9.9,0,0,0,.3.067,1.025,1.025,0,0,0,.619-.383,8.055,8.055,0,0,0,.712-.833,6.632,6.632,0,0,1,.74-.833,1.114,1.114,0,0,1,.672-.383.882.882,0,0,1,.383.094,3.7,3.7,0,0,1,.477.289q.283.195.336.235.335.2.72.417t.853.47q.47.255.726.4.94.47,1.021.713A.762.762,0,0,1,5135.43,631.451Z" transform="translate(-5116.503 -616.503)" fill="#551700"/>
    </g>
  </g>
</svg>
