<svg id="icon-shop" xmlns="http://www.w3.org/2000/svg" width="30" height="30" viewBox="0 0 30 30">
  <g id="グループ_3818" data-name="グループ 3818" transform="translate(2.806 3.857)">
    <path id="パス_25221" data-name="パス 25221" d="M4539.7,625.76a1.834,1.834,0,0,0,1.833-1.833l.669-7.014h-2.933l-1.4,7.014A1.833,1.833,0,0,0,4539.7,625.76Z" transform="translate(-4532.684 -616.913)" fill="#551700"/>
    <path id="パス_25222" data-name="パス 25222" d="M4551.785,625.76a1.833,1.833,0,0,0,1.833-1.833l-.367-7.014h-2.933l-.367,7.014A1.833,1.833,0,0,0,4551.785,625.76Z" transform="translate(-4539.591 -616.913)" fill="#551700"/>
    <path id="パス_25223" data-name="パス 25223" d="M4562.981,625.76a1.833,1.833,0,0,0,1.833-1.833l-1.4-7.014h-2.933l.669,7.014A1.833,1.833,0,0,0,4562.981,625.76Z" transform="translate(-4545.606 -616.913)" fill="#551700"/>
    <path id="パス_25224" data-name="パス 25224" d="M4547.726,616.913h-2.933l1.706,7.014a1.832,1.832,0,0,0,1.385,1.776v11.963h-2.762v-6.95h-6.171v6.949h-10.892V625.7a1.832,1.832,0,0,0,1.384-1.776l1.706-7.014h-2.933l-2.439,7.014a1.829,1.829,0,0,0,.748,1.475v13.8h22.894V625.4a1.828,1.828,0,0,0,.747-1.475Z" transform="translate(-4525.776 -616.913)" fill="#551700"/>
    <rect id="長方形_2000" data-name="長方形 2000" width="4.782" height="4.782" transform="translate(4.742 11.875)" fill="#551700"/>
  </g>
  <rect id="長方形_2001" data-name="長方形 2001" width="30" height="30" fill="none"/>
</svg>
