<svg xmlns="http://www.w3.org/2000/svg" width="17" height="14.571" viewBox="0 0 17 14.571"><defs><style>.a{fill:#f1eceb;}</style></defs><path class="a" d="M4916.372,632.892a.572.572,0,0,1-.419-.171l-5.919-5.711a3.045,3.045,0,0,1-.261-.247q-.167-.171-.527-.622a8.38,8.38,0,0,1-.646-.925,5.8,5.8,0,0,1-.507-1.148,4.132,4.132,0,0,1-.223-1.309,4.354,4.354,0,0,1,1.205-3.263,4.562,4.562,0,0,1,3.33-1.176,3.775,3.775,0,0,1,1.2.2,4.918,4.918,0,0,1,1.14.55c.351.231.651.448.905.65a9.025,9.025,0,0,1,.722.645,8.671,8.671,0,0,1,.72-.645c.254-.2.555-.418.907-.65a4.866,4.866,0,0,1,1.138-.55,3.775,3.775,0,0,1,1.2-.2,4.562,4.562,0,0,1,3.33,1.176,4.35,4.35,0,0,1,1.205,3.263,6.207,6.207,0,0,1-2.172,4.269l-5.91,5.692A.571.571,0,0,1,4916.372,632.892Z" transform="translate(-4907.871 -618.321)"/></svg>