<svg xmlns="http://www.w3.org/2000/svg" width="235.454" height="64" viewBox="0 0 235.454 64"><defs><style>.a{fill:#551700;}.b{fill:#fff;}.c{fill:none;}</style></defs><path class="a" d="M155.381,43c-2.6,0-5.051,1.883-5.051,4.481a5.034,5.034,0,0,0,5.051,4.707,4.63,4.63,0,0,0,4.6-4.707,4.423,4.423,0,0,0-4.6-4.481" transform="translate(-8.922 -1.843)"/><path class="a" d="M99.984,57.3C88.612,52.859,76.694,52.8,65.51,53.4A79.9,79.9,0,0,0,54.222,55.09c-8.579,1.7-16.687,3.314-24.57-1.459a13.461,13.461,0,0,1-6.763-9.414c-1.646-9.5,6.331-20.193,8.757-23.233l2.022-2.4-.423-1.177.611.433.235.2c4.7,4.01,9.491,8.143,15.558,10.073a11.694,11.694,0,0,0,9.331-.894,17.48,17.48,0,0,0,7.967-10.779c.941-3.765.339-7.089-1.881-9.611C62.246,3.6,56.94,1.921,51.513,2.542,45.38,3.248,39.4,6.308,33.735,11.749c-1.571-1.3-3.2-2.645-4.873-3.766C22.738,3.587,16.5,2.335,10.849,4.4A14.572,14.572,0,0,0,1.066,18.969,6.029,6.029,0,0,0,1,19.8a5.731,5.731,0,0,0,5.333,5.761c2.718,0,4.769-2.6,4.769-5.789S9.165,14.422,6.559,14.3a9.416,9.416,0,0,1,.8-1.44,11.774,11.774,0,0,1,9.134-4.839c4.167-.16,8.137,2.523,11.786,5.3.724.527,1.439,1.1,2.258,1.76-2.239,2.457-4.242,5.083-5.766,7.126-6.237,8.642-10.347,21.162-3.01,30.388,8.344,10.619,21.569,9.517,32.076,7.418,17.769-3.615,32.434-3.022,44.831,1.8a2.332,2.332,0,0,0,.865.179,2.023,2.023,0,0,0,1.881-1.374,2.514,2.514,0,0,0-1.4-3.314M38.532,14.8a2.053,2.053,0,0,1,.8-1.572,39.506,39.506,0,0,1,5.174-3.6c4.289-2.41,12.285-4.481,16.7-.339a4.784,4.784,0,0,1,1.561,3.634c0,3.116-2.239,7.013-4.412,9.094-2.728,2.645-6.4,2.57-11.532-.235a48.772,48.772,0,0,1-7.525-5.309,2.109,2.109,0,0,1-.743-1.676" transform="translate(-0.059 0.537)"/><path class="a" d="M141.71,36.948a1.881,1.881,0,0,0-1.43.734,22.679,22.679,0,0,1-4.8,4.613h-.16l-.132.038c.4-.527.753-1.054,1.1-1.563a9.42,9.42,0,0,0,1.609-7.239,7.728,7.728,0,0,0-3.763-4.9,6.091,6.091,0,0,0-4.779-.734c-3.509.941-6.4,4.829-8.193,7.945a13.958,13.958,0,0,0-1.336,3.587,13.167,13.167,0,0,1-7.817,4.641,5.8,5.8,0,0,1-4.628-1.224,1.977,1.977,0,0,1-.7-1.459,2.919,2.919,0,0,1,.075-.885,2.308,2.308,0,0,0,.376-1.139,15.589,15.589,0,0,1,2.653-3.878c1.185-1.318,4.7-3.464,6.1-2.824q.734.339.536,1.883a1.827,1.827,0,0,0,.687,1.751,2.435,2.435,0,0,0,2.361.2,2.25,2.25,0,0,0,1.345-1.883,5.34,5.34,0,0,0-1.618-5.008c-1.6-1.374-4.158-1.742-6.848-.988-4.045,1.148-8.315,5.7-9.6,9.884a20.833,20.833,0,0,1-4.1,3.765h-.141l-.094.047c.414-.527.762-1.054,1.1-1.563a9.419,9.419,0,0,0,1.618-7.239,7.709,7.709,0,0,0-3.763-4.9,6.063,6.063,0,0,0-4.769-.734c-3.518.941-6.4,4.829-8.193,7.945a13.78,13.78,0,0,0-1.467,4.236,11.73,11.73,0,0,1-4.91,3.558,9.644,9.644,0,0,1,1.11-2.353c.941-1.638,2.051-3.5.743-5.648A5.511,5.511,0,0,0,74.5,32.515c1.176-.838,2.465-1.572,3.706-2.288a25.107,25.107,0,0,0,6.519-4.707,6.9,6.9,0,0,0,1.552-5.432,5.461,5.461,0,0,0-2.323-4.01,3.281,3.281,0,0,0-2.587-.4c-3.32.8-6.472,5.987-7.817,8.2l-.113.188c-.847,1.374-1.674,2.768-2.493,4.151-1.317,2.2-2.662,4.49-4.1,6.665-.423.65-.865,1.365-1.326,2.109-1.618,2.645-3.462,5.648-5.578,7.239A2.175,2.175,0,0,0,59,46.287a2.278,2.278,0,0,0,1.279,1.883,1.673,1.673,0,0,0,.668.141,1.974,1.974,0,0,0,1.185-.433,25.252,25.252,0,0,0,5.381-6.345A16.491,16.491,0,0,1,73.523,37a1.72,1.72,0,0,1,1.881.377,2,2,0,0,1,0,2.3c-.132.245-.273.48-.414.706a9.047,9.047,0,0,0-.8,1.563c-.941,2.561-.48,4.509,1.467,5.789,2.333,1.487,5.418-.235,7.9-2.363a5.879,5.879,0,0,0,4.515,3.05h.649a9.073,9.073,0,0,0,5.23-1.8,1.5,1.5,0,0,1,1.43-.094,5.566,5.566,0,0,0,2.022.612c2.079.2,4.092-1.1,5.794-2.674a6.9,6.9,0,0,0,.884,1.214,9.177,9.177,0,0,0,6.81,2.655h.151a15.561,15.561,0,0,0,9.1-3.53,5.936,5.936,0,0,0,4.779,3.577h.658a9.063,9.063,0,0,0,5.221-1.8,1.5,1.5,0,0,1,1.43-.094,5.566,5.566,0,0,0,2.022.612c3.518.329,6.839-3.587,8.814-5.931l.357-.424h0a2.336,2.336,0,0,0-.348-3.314,2.1,2.1,0,0,0-1.355-.508M128.259,38.8a1.884,1.884,0,0,0-.16,1.553l.4,1.261c.207.6.16.659-.245,1.148l-.329.414c-1.279.81-2.267,1.054-2.972.725a1.722,1.722,0,0,1-.941-1.026c-.367-1.007,0-2.692.941-4.6l.235-.414c1.3-2.231,3.076-5.3,5.71-5.592h.216a2.68,2.68,0,0,1,1.693.668,2.891,2.891,0,0,1,1.063,1.939c.1,1.064-.423,2.222-1.308,3.766a.414.414,0,0,1-.32.179.367.367,0,0,1-.32-.16c-.235-.3-.941-1.214-1.957-.941a2.558,2.558,0,0,0-1.665,1.13m-36.808,0a1.884,1.884,0,0,0-.16,1.553l.4,1.261c.207.6.16.659-.245,1.148-.1.113-.207.254-.329.414-1.279.81-2.276,1.054-2.972.725a1.769,1.769,0,0,1-.941-1.026,3.071,3.071,0,0,1-.122-1.139l.132-.179h0a1.809,1.809,0,0,0,.273-1.723,12.946,12.946,0,0,1,.658-1.553l.235-.414c1.3-2.231,3.076-5.3,5.71-5.592h.207a2.661,2.661,0,0,1,1.693.668A2.9,2.9,0,0,1,97.1,34.934c.1,1.064-.423,2.222-1.308,3.766a.414.414,0,0,1-.32.179.386.386,0,0,1-.329-.16c-.226-.3-.941-1.214-1.947-.941a2.559,2.559,0,0,0-1.665,1.13M76.871,26.33a27.183,27.183,0,0,1,2.1-2.918c1.881-2.25,2.728-2.7,2.907-2.7h0a.791.791,0,0,1,.066.386,2.994,2.994,0,0,1-1.307,2.485,20.7,20.7,0,0,1-3.763,2.749" transform="translate(-3.501 -0.235)"/><path class="a" d="M196.032,28.563a2.061,2.061,0,0,0-2.173-2.128c-.865,0-1.759,0-2.681-.056a.132.132,0,0,1-.122-.056.1.1,0,0,1,0-.113,87.866,87.866,0,0,1,8.551-10.826,2.04,2.04,0,0,1,2.276-.471A23.2,23.2,0,0,0,213,16.937c4.835-.414,7.525-3.766,8-6.844.583-3.605-1.524-6.994-5.286-8.6A2.417,2.417,0,0,0,212.55,2.9a1.827,1.827,0,0,0,1.006,2.513c1.279.527,2.822,1.29,3.264,2.532a3.353,3.353,0,0,1-.4,2.721c-.809,1.666-3.349,1.93-4.562,2.052-3.01.217-6.152-.941-9.087-2.128l-1.787-.781c-4.045-1.789-8.221-3.634-15.925-3.182-4.985.311-9.943,4.264-11.053,8.8-.809,3.295.593,6.222,3.932,8.237A2.087,2.087,0,0,0,180.9,22.9a2.119,2.119,0,0,0-.715-3,3.558,3.558,0,0,1-1.881-2.57,5.49,5.49,0,0,1,1.74-4.208c1.524-1.666,4.129-2.015,6.726-2.146a23.978,23.978,0,0,1,8.88,1.111.621.621,0,0,1,.4.452.565.565,0,0,1-.2.527,51.816,51.816,0,0,0-9.463,12.4,2.361,2.361,0,0,1-1.881,1.158h-.15a1,1,0,0,1-.254,0,2.277,2.277,0,0,0-2.069,2.024,2.062,2.062,0,0,0,1.223,2.306l-.442.875c-2.173,3.9-4.43,7.926-8.014,10.355a5.1,5.1,0,0,1-5.964-.461,2.76,2.76,0,0,1-.452-3.671,2.138,2.138,0,0,0-.865-2.994,2.069,2.069,0,0,0-2.916.772,7.3,7.3,0,0,0,1.119,8.915,8.792,8.792,0,0,0,6.359,2.73,8.329,8.329,0,0,0,3.763-.885c5.061-2.551,8.118-7.908,10.8-12.614l.4-.706c.141-.282.292-.546.442-.81s.32-.555.461-.828a1.58,1.58,0,0,1,1.355-.819h4.562a2.136,2.136,0,0,0,2.163-2.231" transform="translate(-9.708 0.601)"/><path class="a" d="M244.667,37.983a2.125,2.125,0,0,0-3.01.584,45.581,45.581,0,0,1-3.1,4.18c-1.054,1.309-1.881,1.647-2.088,1.544s-.226-.584.5-2.212a26.8,26.8,0,0,1,1.467-2.664,22.6,22.6,0,0,0,1.721-3.267c.7-1.742,1.072-4.151,0-5.648a3.338,3.338,0,0,0-3.01-1.4,8.218,8.218,0,0,0-5,2.278,4.524,4.524,0,0,0-4.929-2.382c-2.079.386-3.941,2.429-5.305,3.916l-.32.348a68.77,68.77,0,0,0-5.032,5.9l-.423.414c-1.7,1.723-4.562,4.6-6.707,5.253-.489.132-.837.132-.941,0s-.16-.941.461-2.259a47.161,47.161,0,0,1,3.894-6.439c1.308-1.883,1.759-3.078,1.552-4.17a4.358,4.358,0,0,0-2.164-2.664l-.16-.066h0c-2.211-1.064-6.359.584-8.061,1.346a29.251,29.251,0,0,0-8.184,5.253c-2.069,1.883-4.553,6.27-3.847,9.64a4.705,4.705,0,0,0,3.311,3.521,7.256,7.256,0,0,0,2.192.348c2.22,0,4.534-1.054,7.027-3.172a5.5,5.5,0,0,0,3.038,2.758c3.96,1.61,9.595-4.18,12.012-6.656l.1-.1a2.344,2.344,0,0,0,.414-.612c1.646-2.015,3.452-4.18,5.39-6.119l.122-.132a7.79,7.79,0,0,1,2.822-2.2c.282-.1.442-.085.47,0s.122,1.092-1.392,3.474a91.137,91.137,0,0,1-6.688,9.065,2.119,2.119,0,0,0-.4,2.127,2.258,2.258,0,0,0,1.674,1.487,1.824,1.824,0,0,0,1.74-.687,68.632,68.632,0,0,0,4.2-5.545c1.373-1.949,2.624-3.709,3.875-5.159a24.243,24.243,0,0,1,4.318-3.926l.339-.217a18.985,18.985,0,0,1-2.069,4.528c-1.072,1.967-3.311,6.053-2.3,8.736a3.66,3.66,0,0,0,2.342,2.146,3.986,3.986,0,0,0,1.383.254c3.847,0,7.412-5.451,9.237-8.218l.216-.339a1.94,1.94,0,0,0-.63-2.824M209.5,33.163c-.48.772-1.355,2.09-2.624,3.926l-.15.226c-2.1,2.984-4.976,6.59-8.588,7.531-.771.2-1.345.16-1.637-.113a1.677,1.677,0,0,1-.254-1.44c.263-1.967,1.759-3.982,4.459-5.987,2.013-1.534,5.964-4,8.8-4.142" transform="translate(-11.386 -1.015)"/><path class="b" d="M157.14,44.268c-.564.2.574,1.214.941,2.288s-.15,1.779.414,1.582a2,2,0,0,0,.649-2.41c-.376-1.064-1.458-1.657-2.013-1.459" transform="translate(-9.317 -1.915)"/><path class="b" d="M8.311,17.848c-.555.2.583,1.214.941,2.288s-.151,1.779.414,1.582a2,2,0,0,0,.649-2.4c-.376-1.073-1.458-1.666-2.022-1.469" transform="translate(-0.484 -0.366)"/><path class="b" d="M219.045,3c-.564.207,2.173,1.6,2.972,3.653.4,1.064.4,1.883.941,1.657s.687-.941-.329-2.617S219.6,2.839,219.045,3" transform="translate(-12.996 0.503)"/><path class="b" d="M63.352,5.118c-.865.3,3.217,2.1,4.327,4.9.564,1.44.517,2.551,1.383,2.24s1.091-1.384-.348-3.615-4.5-3.841-5.362-3.53" transform="translate(-3.753 0.38)"/><path class="b" d="M241.994,30.69c-.31-.066.442,1.76.141,3.342-.15.81-.4,1.318-.094,1.384s1.054-.875,1.138-2.269a2.75,2.75,0,0,0-1.185-2.457" transform="translate(-14.357 -1.121)"/><rect class="c" width="235.454" height="64"/></svg>