<svg id="探してみよう" xmlns="http://www.w3.org/2000/svg" width="227" height="109" viewBox="0 0 227 109">
  <rect id="長方形_1983" data-name="長方形 1983" width="227" height="109" fill="none"/>
  <g id="探してみよう-2" data-name="探してみよう">
    <path id="パス_24929" data-name="パス 24929" d="M23.52,23.12h180V85.69h-180Z" fill="#fff"/>
    <g id="グループ_3568" data-name="グループ 3568">
      <g id="Chocolate_Shop_" data-name="Chocolate Shop " style="isolation: isolate">
        <g id="グループ_3796" data-name="グループ 3796" style="isolation: isolate">
          <path id="パス_25179" data-name="パス 25179" d="M18.27,84.59c0-5.85,3.77-9.28,8.25-9.28a7.24,7.24,0,0,1,5.21,2.28l-1.85,2.25a4.68,4.68,0,0,0-3.28-1.49c-2.69,0-4.71,2.31-4.71,6.12s1.82,6.2,4.63,6.2a4.91,4.91,0,0,0,3.68-1.75l1.87,2.2a7.18,7.18,0,0,1-5.67,2.62C21.92,93.74,18.27,90.52,18.27,84.59Z" fill="#551700"/>
          <path id="パス_25180" data-name="パス 25180" d="M34.63,74.25h3.53v4.82L38,81.59a6.14,6.14,0,0,1,4.22-2c2.9,0,4.15,2,4.15,5.4V93.4H42.84V85.46c0-2.09-.57-2.81-1.89-2.81-1.11,0-1.8.53-2.79,1.51V93.4H34.63Z" fill="#551700"/>
          <path id="パス_25181" data-name="パス 25181" d="M49.15,86.68c0-4.46,3.1-7.05,6.46-7.05s6.46,2.59,6.46,7.05-3.1,7.06-6.46,7.06S49.15,91.15,49.15,86.68Zm9.32,0c0-2.52-1-4.17-2.86-4.17s-2.86,1.65-2.86,4.17,1,4.18,2.86,4.18S58.47,89.23,58.47,86.68Z" fill="#551700"/>
          <path id="パス_25182" data-name="パス 25182" d="M64.18,86.68A6.7,6.7,0,0,1,71,79.63a5.9,5.9,0,0,1,4,1.48l-1.68,2.28a3.1,3.1,0,0,0-2-.88c-2.07,0-3.46,1.65-3.46,4.17s1.42,4.18,3.34,4.18a4.17,4.17,0,0,0,2.61-1.08l1.42,2.33a6.77,6.77,0,0,1-4.42,1.63C67,93.74,64.18,91.15,64.18,86.68Z" fill="#551700"/>
          <path id="パス_25183" data-name="パス 25183" d="M76.11,86.68c0-4.46,3.09-7.05,6.45-7.05S89,82.22,89,86.68s-3.1,7.06-6.46,7.06S76.11,91.15,76.11,86.68Zm9.31,0c0-2.52-1-4.17-2.86-4.17s-2.85,1.65-2.85,4.17,1,4.18,2.85,4.18S85.42,89.23,85.42,86.68Z" fill="#551700"/>
          <path id="パス_25184" data-name="パス 25184" d="M92,89.63V74.25h3.5V89.78c0,.81.36,1.08.69,1.08a1.89,1.89,0,0,0,.48,0l.44,2.62a4.72,4.72,0,0,1-1.83.31C92.83,93.74,92,92.13,92,89.63Z" fill="#551700"/>
          <path id="パス_25185" data-name="パス 25185" d="M98.86,89.75c0-2.87,2.33-4.39,7.75-5-.07-1.32-.65-2.33-2.3-2.33a7.6,7.6,0,0,0-3.7,1.27L99.34,81.4A10.74,10.74,0,0,1,105,79.63c3.41,0,5.16,2,5.16,5.92V93.4h-2.88L107,92h-.09a6.32,6.32,0,0,1-4.06,1.78,3.81,3.81,0,0,1-3.99-4.03Zm7.75-.09V87c-3.29.4-4.39,1.32-4.39,2.52,0,1,.74,1.51,1.77,1.51a3.65,3.65,0,0,0,2.62-1.37Z" fill="#551700"/>
          <path id="パス_25186" data-name="パス 25186" d="M113.76,88.7v-6h-1.89V80.13L114,80l.41-3.62h2.93V80h3.31v2.79h-3.31v6c0,1.54.62,2.26,1.82,2.26a4,4,0,0,0,1.32-.29l.58,2.57a8.71,8.71,0,0,1-2.83.5C115,93.74,113.76,91.7,113.76,88.7Z" fill="#551700"/>
          <path id="パス_25187" data-name="パス 25187" d="M122,86.68c0-4.34,3.07-7.05,6.27-7.05,3.69,0,5.61,2.71,5.61,6.41a6.461,6.461,0,0,1-.17,1.63h-8.28A3.53,3.53,0,0,0,129.19,91a5.55,5.55,0,0,0,3-.94l1.2,2.16a8.49,8.49,0,0,1-4.68,1.49C125,93.74,122,91.12,122,86.68Zm8.86-1.37c0-1.8-.82-3-2.55-3a3,3,0,0,0-2.92,3Z" fill="#551700"/>
          <path id="パス_25188" data-name="パス 25188" d="M141.38,91.15l2-2.45a7,7,0,0,0,4.52,2c1.85,0,2.83-.79,2.83-2s-1.08-1.73-2.66-2.4l-2.38-1c-1.8-.75-3.6-2.19-3.6-4.78,0-2.9,2.54-5.13,6.14-5.13a7.85,7.85,0,0,1,5.57,2.28L152,79.82a5.65,5.65,0,0,0-3.77-1.47c-1.56,0-2.54.7-2.54,1.88s1.31,1.77,2.8,2.32l2.33,1c2.16.89,3.57,2.25,3.57,4.82,0,2.91-2.42,5.38-6.52,5.38a9.51,9.51,0,0,1-6.49-2.6Z" fill="#551700"/>
          <path id="パス_25189" data-name="パス 25189" d="M157.25,74.25h3.53v4.82l-.17,2.52a6.14,6.14,0,0,1,4.22-2c2.91,0,4.16,2,4.16,5.4V93.4h-3.53V85.46c0-2.09-.58-2.81-1.9-2.81-1.1,0-1.8.53-2.78,1.51V93.4h-3.53Z" fill="#551700"/>
          <path id="パス_25190" data-name="パス 25190" d="M171.77,86.68c0-4.46,3.1-7.05,6.46-7.05s6.45,2.59,6.45,7.05-3.09,7.06-6.45,7.06S171.77,91.15,171.77,86.68Zm9.31,0c0-2.52-1-4.17-2.85-4.17s-2.86,1.65-2.86,4.17,1,4.18,2.86,4.18S181.08,89.23,181.08,86.68Z" fill="#551700"/>
          <path id="パス_25191" data-name="パス 25191" d="M187.63,80h2.88l.27,1.39h.07a6.37,6.37,0,0,1,4-1.72c3.31,0,5.28,2.71,5.28,6.84,0,4.61-2.76,7.27-5.71,7.27a5,5,0,0,1-3.42-1.5l.12,2.2v4.08h-3.53Zm8.84,6.55c0-2.56-.82-4-2.67-4a3.72,3.72,0,0,0-2.64,1.39v5.91a3.68,3.68,0,0,0,2.42,1c1.64-.02,2.89-1.41,2.89-4.34Z" fill="#551700"/>
          <path id="パス_25192" data-name="パス 25192" d="M203.45,91.44a2.19,2.19,0,0,1,2.18-2.31,2.31,2.31,0,1,1-2.18,2.31ZM204,78.5l-.12-3.34h3.55l-.12,3.34-.5,8.85H204.5Z" fill="#551700"/>
        </g>
      </g>
      <g id="グループ_3563" data-name="グループ 3563">
        <path id="パス_15412" data-name="パス 15412" d="M110.15,47.79a2.26,2.26,0,0,0,2.25-2.26h0l.83-8.63h-3.61l-1.73,8.63a2.26,2.26,0,0,0,2.26,2.26Z" fill="#551700"/>
        <path id="パス_15413" data-name="パス 15413" d="M116.52,47.79a2.26,2.26,0,0,0,2.25-2.26l-.45-8.63h-3.6l-.45,8.63a2.26,2.26,0,0,0,2.25,2.26Z" fill="#551700"/>
        <path id="パス_15414" data-name="パス 15414" d="M122.89,47.79a2.26,2.26,0,0,0,2.26-2.26l-1.73-8.63h-3.6l.82,8.63a2.26,2.26,0,0,0,2.25,2.26Z" fill="#551700"/>
        <path id="パス_15415" data-name="パス 15415" d="M128.52,36.9h-3.6l2.1,8.63a2.25,2.25,0,0,0,1.7,2.18V62.43h-3.4V53.88h-7.59v8.55h-13.4V47.71a2.25,2.25,0,0,0,1.7-2.18l2.1-8.63h-3.61l-3,8.63a2.23,2.23,0,0,0,.92,1.81v17H130.6v-17a2.23,2.23,0,0,0,.92-1.81Z" fill="#551700"/>
        <rect id="長方形_1954" data-name="長方形 1954" width="5.88" height="5.88" transform="translate(107.36 51.51)" fill="#551700"/>
      </g>
    </g>
    <path id="パス_15503" data-name="パス 15503" d="M224,94.35v11.34H212.68" fill="none" stroke="#551700" stroke-width="4"/>
    <path id="パス_15502" data-name="パス 15502" d="M3.52,14.25V2.9H14.86" fill="none" stroke="#551700" stroke-width="4"/>
  </g>
  <path id="パス_25193" data-name="パス 25193" d="M69,26.32l-1.1.65L68.56,30c.27,1.25-.11,1.69-1.88,2.06A6,6,0,0,0,66,30.79l.72-.13c.47-.1.52-.12.47-.34l-.57-2.61-.87.49a.31.31,0,0,1-.17.28l-.73-1.54c.4-.18.91-.42,1.44-.7L65.79,24l-1.36.3-.3-1.37,1.36-.31L65,20.24l1.7-.29c0,.13,0,.22-.26.29l.46,2.09,1.21-.27.3,1.38-1.21.26.42,1.89,1-.48Zm.41-5.22.3,1.4-1.26.27-.58-2.65L75,18.53l.6,2.68-1.31.29L74,20.08Zm2.24-.1c0,.1-.05.21-.24.26.19,1.67.09,3-2,4.15a3.47,3.47,0,0,0-1-.91c1.71-.88,1.78-1.8,1.56-3.27Zm5.06,4.74-2.28.5A8.29,8.29,0,0,0,77.53,28a5.3,5.3,0,0,0-.75,1.36,9,9,0,0,1-2.93-1.87l.64,2.88-1.49.3-.6-2.87a8.28,8.28,0,0,1-2.16,3.08A6.82,6.82,0,0,0,69,30a7.38,7.38,0,0,0,2.32-3l-2.09.47L69,26.1l2.91-.64-.27-1.23,1.6-.27c-.44-.11-.63-.49-.79-1.24L72,20.78l1.66-.26c0,.11-.06.21-.27.29l.35,1.61c.07.31.13.32.35.27l.62-.13c.2,0,.22-.16.12-.82a3.48,3.48,0,0,0,1.25.22c.12,1.17-.16,1.56-.95,1.74l-1,.22a2.74,2.74,0,0,1-.7.07c0,.1-.1.18-.28.25l.2.9,3.08-.68Z" fill="#551700"/>
  <path id="パス_25194" data-name="パス 25194" d="M85.65,17.16c0,.15-.11.26-.35.33.09,1.69.3,4.64.52,6.49.19,1.61,1.09,2.27,2.44,2.11a6,6,0,0,0,3.82-2.55,10.3,10.3,0,0,0,1.08,1.32,7,7,0,0,1-4.73,2.87c-2.79.32-4.05-1.07-4.33-3.55-.2-1.68-.54-5.34-.63-6.87Z" fill="#551700"/>
  <path id="パス_25195" data-name="パス 25195" d="M98.67,16.83a13.127,13.127,0,0,0,1.33-.1c1.45-.17,6.89-.78,9-1l.11,1.7a3.76,3.76,0,0,0-2.71.91c-1.34,1-3,2.81-2.91,4.25s1.39,2.21,4.17,2.37L107,26.6c-3.61-.26-5.09-1.71-5.2-3.89-.07-1.54,1.24-3.61,3.07-5-1.44.16-4.46.59-5.62.77,0,.1-.18.2-.29.23Z" fill="#551700"/>
  <path id="パス_25196" data-name="パス 25196" d="M126.06,18.5a.36.36,0,0,1-.38.24c-.15.69-.37,1.62-.6,2.39.58.26,1.26.58,1.88.91l-.71,1.52c-.58-.32-1.12-.62-1.65-.89a7.12,7.12,0,0,1-2.6,3.67,8.8,8.8,0,0,0-1.3-.9A6.29,6.29,0,0,0,123.15,22a11.68,11.68,0,0,0-2.48-.77c-.9,3.05-1.85,3.79-3.37,3.77a2,2,0,0,1-2-2.29c0-2,2.14-3,4.19-3a22.082,22.082,0,0,0,.57-2.87c-.6.06-2.19.18-3.15.22a.48.48,0,0,1-.32.2l-.15-1.67c1.38,0,3.59-.17,4.18-.21a.71.71,0,0,0,.33-.18l1.26.66a.72.72,0,0,1-.33.25c-.2,1.11-.55,2.7-.83,3.72a12.53,12.53,0,0,1,2.54.7,20.28,20.28,0,0,0,.54-2.5Zm-6.93,2.59c-1.38,0-2.41.65-2.42,1.65,0,.51.23.86.65.86C118,23.61,118.47,23.32,119.13,21.09Z" fill="#551700"/>
  <path id="パス_25197" data-name="パス 25197" d="M141.47,26.56a14.63,14.63,0,0,0-2.93-2.19A2.87,2.87,0,0,1,138,26c-.29.55-1.06.84-2.22.78-1.8-.11-3.19-1.11-3.13-2.52s1.65-2.17,3.23-2.09a7.37,7.37,0,0,1,1.12.16c0-.21,0-.39,0-.56,0-1.71.06-4.67.15-6.14l2,.24c0,.13-.12.23-.34.27,0,.3-.11,1.8-.14,2.14a31.2,31.2,0,0,0,3.86-.16v1.59a33.26,33.26,0,0,1-4,.08V22.7a15.24,15.24,0,0,1,4,2.46Zm-5.63-3.1c-1.32-.09-1.73.41-1.75.83,0,.68.7,1,1.56,1.07s1.24-.31,1.27-.87a6.829,6.829,0,0,0,0-.79,3.83,3.83,0,0,0-1.08-.24Z" fill="#551700"/>
  <path id="パス_25198" data-name="パス 25198" d="M150.46,21.06a28.34,28.34,0,0,1,5.48-.28,2.89,2.89,0,0,1,2.73,3.54c-.36,2.43-2.4,3.77-6,4.31a8.17,8.17,0,0,0-.86-1.53c3.07-.3,4.88-1.39,5.1-3a1.45,1.45,0,0,0-1.27-1.86,13.8,13.8,0,0,0-4.51.4c0,.12-.18.24-.31.27Zm2.66-4A22.4,22.4,0,0,1,158,18.63l-.66,1.53a20.7,20.7,0,0,0-4.8-1.63Z" fill="#551700"/>
  <path id="パス_25199" data-name="パス 25199" d="M168,29.46a1.12,1.12,0,1,1,.79,1.4,1.09,1.09,0,0,1-.79-1.4Zm2.31-1.53-1.42-.37,1.44-6.5,1.91.5Z" fill="#551700"/>
  <rect id="長方形_1984" data-name="長方形 1984" width="227" height="109" fill="none"/>
</svg>
