<svg xmlns="http://www.w3.org/2000/svg" width="215.909" height="93.364" viewBox="0 0 215.909 93.364"><defs><style>.a{fill:#551700;}.b,.d{fill:#fff;}.c{fill:none;}.d{stroke:#551700;stroke-linecap:round;stroke-linejoin:round;}</style></defs><g transform="translate(-45.03 -999.314)"><g transform="translate(-11.432 -3.568)"><g transform="translate(56.462 1038.086)"><path class="a" d="M177.031,1071.527c-2.381,0-4.631,1.711-4.631,4.072a4.6,4.6,0,0,0,4.631,4.277,4.256,4.256,0,0,0,3.009-1.266,4.189,4.189,0,0,0,1.209-3.011,4,4,0,0,0-1.23-2.936,4.077,4.077,0,0,0-2.987-1.136" transform="translate(-42.73 -1034.126)"/><path class="a" d="M148,1090.361c-10.428-4.037-21.362-4.089-31.613-3.55a73.988,73.988,0,0,0-10.351,1.54c-7.869,1.551-15.3,3.011-22.531-1.326a12.239,12.239,0,0,1-6.2-8.555c-1.51-8.632,5.8-18.349,8.03-21.113l1.854-2.181-.388-1.069.559.394.216.18c4.313,3.644,8.7,7.4,14.267,9.153a10.805,10.805,0,0,0,8.557-.813,15.9,15.9,0,0,0,7.306-9.8c.862-3.421.311-6.441-1.725-8.734-2.588-2.934-7.452-4.457-12.429-3.892-5.624.642-11.109,3.421-16.3,8.366-1.441-1.181-2.933-2.4-4.468-3.422-5.615-3.995-11.333-5.132-16.517-3.259a13.243,13.243,0,0,0-8.971,13.242,5.66,5.66,0,0,0-.06.753,5.227,5.227,0,0,0,4.891,5.235c2.493,0,4.373-2.361,4.373-5.257s-1.777-4.859-4.166-4.97a8.631,8.631,0,0,1,.734-1.309,10.827,10.827,0,0,1,8.373-4.4c3.822-.145,7.461,2.293,10.808,4.816.664.479,1.32,1,2.07,1.6-2.053,2.237-3.89,4.619-5.288,6.476-5.719,7.853-9.488,19.231-2.76,27.614,7.651,9.65,19.779,8.649,29.415,6.741,16.293-3.285,29.742-2.746,41.109,1.634a2.146,2.146,0,0,0,.794.162,1.851,1.851,0,0,0,1.727-1.251,2.261,2.261,0,0,0,0-1.774,2.3,2.3,0,0,0-1.283-1.237M91.65,1051.738a1.862,1.862,0,0,1,.734-1.428,36.232,36.232,0,0,1,4.744-3.268c3.932-2.191,11.264-4.072,15.309-.311a4.329,4.329,0,0,1,1.432,3.3c0,2.832-2.053,6.375-4.045,8.264-2.5,2.4-5.865,2.335-10.575-.214a44.688,44.688,0,0,1-6.9-4.825,1.91,1.91,0,0,1-.681-1.522" transform="translate(-56.371 -1037.803)"/><path class="a" d="M177.811,1069.973a1.735,1.735,0,0,0-1.311.671,20.691,20.691,0,0,1-4.4,4.192h-.147l-.121.035c.371-.479.69-.959,1.007-1.421a8.5,8.5,0,0,0,1.475-6.579,7.033,7.033,0,0,0-3.45-4.448,5.632,5.632,0,0,0-4.382-.671c-3.218.855-5.865,4.389-7.513,7.219a12.609,12.609,0,0,0-1.23,3.259,12.1,12.1,0,0,1-7.168,4.218,5.355,5.355,0,0,1-4.243-1.112,1.79,1.79,0,0,1-.629-1.325,2.666,2.666,0,0,1,.069-.8,2.082,2.082,0,0,0,.344-1.035,14.182,14.182,0,0,1,2.433-3.524c1.087-1.2,4.313-3.148,5.592-2.567q.671.309.492,1.711a1.653,1.653,0,0,0,.63,1.592,2.249,2.249,0,0,0,2.165.18,2.041,2.041,0,0,0,1.23-1.711,4.827,4.827,0,0,0-1.484-4.551,6.872,6.872,0,0,0-6.28-.895c-3.709,1.043-7.626,5.184-8.807,8.982a19.021,19.021,0,0,1-3.767,3.417h-.13l-.086.042c.379-.479.7-.959,1.007-1.421a8.5,8.5,0,0,0,1.483-6.579,7.014,7.014,0,0,0-3.45-4.448,5.61,5.61,0,0,0-4.373-.671c-3.226.856-5.865,4.389-7.513,7.219a12.466,12.466,0,0,0-1.342,3.85,10.747,10.747,0,0,1-4.5,3.238,8.729,8.729,0,0,1,1.018-2.138c.862-1.489,1.88-3.182.681-5.132a5.062,5.062,0,0,0-4.933-2.823c1.078-.762,2.26-1.428,3.4-2.079a23,23,0,0,0,5.978-4.277,6.231,6.231,0,0,0,1.424-4.936,4.954,4.954,0,0,0-2.125-3.644,3.038,3.038,0,0,0-2.372-.368c-3.044.727-5.934,5.441-7.168,7.451l-.1.171c-.776,1.249-1.536,2.515-2.286,3.772-1.208,2-2.442,4.08-3.761,6.056-.388.591-.794,1.24-1.216,1.916-1.483,2.4-3.174,5.132-5.115,6.579a1.973,1.973,0,0,0-.867,1.873,2.072,2.072,0,0,0,1.173,1.711,1.526,1.526,0,0,0,.613.129,1.815,1.815,0,0,0,1.087-.394,22.986,22.986,0,0,0,4.933-5.766,15.135,15.135,0,0,1,5.5-4.124,1.59,1.59,0,0,1,1.725.342,1.8,1.8,0,0,1,0,2.087c-.121.224-.251.436-.379.642a8.293,8.293,0,0,0-.734,1.42c-.862,2.327-.44,4.1,1.342,5.257,2.14,1.351,4.968-.214,7.245-2.147a5.387,5.387,0,0,0,4.138,2.772h.6a8.361,8.361,0,0,0,4.8-1.634,1.382,1.382,0,0,1,1.311-.085,5.127,5.127,0,0,0,1.854.559c1.9.18,3.752-1,5.314-2.429a6.226,6.226,0,0,0,.811,1.1,8.452,8.452,0,0,0,6.245,2.412h.138a14.339,14.339,0,0,0,8.341-3.208,5.438,5.438,0,0,0,4.382,3.25h.6a8.351,8.351,0,0,0,4.787-1.634,1.382,1.382,0,0,1,1.311-.085,5.127,5.127,0,0,0,1.854.559c3.226.3,6.271-3.259,8.082-5.39l.328-.385h0a2.109,2.109,0,0,0-.27-2.971l-.049-.04a1.938,1.938,0,0,0-1.243-.462m-12.343,1.711a1.7,1.7,0,0,0-.147,1.411l.362,1.146c.19.548.147.6-.224,1.043l-.3.369c-1.173.736-2.079.958-2.726.659a1.565,1.565,0,0,1-.862-.933c-.336-.915,0-2.447.862-4.183l.216-.377c1.19-2.028,2.821-4.816,5.235-5.081h.2a2.473,2.473,0,0,1,1.552.607,2.623,2.623,0,0,1,.975,1.762,6.166,6.166,0,0,1-1.2,3.422.377.377,0,0,1-.293.162.336.336,0,0,1-.293-.145,1.8,1.8,0,0,0-1.79-.856,2.348,2.348,0,0,0-1.527,1.027m-33.752,0a1.7,1.7,0,0,0-.147,1.411l.362,1.146c.19.548.147.6-.224,1.043-.1.1-.19.232-.3.377-1.173.736-2.087.958-2.726.659a1.61,1.61,0,0,1-.862-.933,2.79,2.79,0,0,1-.112-1.035l.121-.162h0a1.628,1.628,0,0,0,.251-1.566,11.81,11.81,0,0,1,.6-1.411l.216-.377c1.19-2.028,2.821-4.816,5.235-5.081h.19a2.459,2.459,0,0,1,1.552.608,2.632,2.632,0,0,1,.983,1.762,6.167,6.167,0,0,1-1.2,3.422.378.378,0,0,1-.293.162.354.354,0,0,1-.3-.145,1.789,1.789,0,0,0-1.79-.855,2.349,2.349,0,0,0-1.527,1.027m-13.438-11.425a24.845,24.845,0,0,1,1.924-2.652c1.725-2.044,2.5-2.46,2.665-2.46h0a.717.717,0,0,1,.06.351,2.713,2.713,0,0,1-1.2,2.258,18.941,18.941,0,0,1-3.45,2.5" transform="translate(-51.074 -1036.611)"/><path class="a" d="M212.379,1064.4a1.866,1.866,0,0,0-.567-1.4,1.9,1.9,0,0,0-1.426-.531c-.794,0-1.613,0-2.461-.051a.121.121,0,0,1-.112-.052.1.1,0,0,1,0-.1,80.016,80.016,0,0,1,7.84-9.842,1.884,1.884,0,0,1,2.087-.427,21.437,21.437,0,0,0,10.2,1.839,7.7,7.7,0,0,0,7.331-6.22c.535-3.276-1.4-6.356-4.847-7.819a2.242,2.242,0,0,0-1.722.036,2.211,2.211,0,0,0-1.173,1.247,1.654,1.654,0,0,0,.923,2.282c1.173.479,2.588,1.172,2.993,2.3a3.019,3.019,0,0,1-.362,2.472c-.742,1.514-3.071,1.754-4.183,1.864-2.76.2-5.641-.856-8.332-1.934l-1.639-.71a27.821,27.821,0,0,0-14.6-2.891c-4.571.282-9.118,3.875-10.135,8-.742,2.994.544,5.655,3.606,7.486a2,2,0,0,0,2.052-3.43,3.235,3.235,0,0,1-1.725-2.335,4.969,4.969,0,0,1,1.6-3.824c1.4-1.514,3.787-1.831,6.167-1.951a22.186,22.186,0,0,1,8.142,1.007.569.569,0,0,1,.371.41.508.508,0,0,1-.181.479,47.172,47.172,0,0,0-8.677,11.266,2.166,2.166,0,0,1-1.726,1.052h-.138a.894.894,0,0,1-.233,0,2.08,2.08,0,0,0-1.9,1.839,1.87,1.87,0,0,0,1.118,2.1l-.4.8c-1.993,3.542-4.062,7.2-7.349,9.411a4.707,4.707,0,0,1-5.469-.419,2.492,2.492,0,0,1-.414-3.336,2.051,2.051,0,0,0-2.284-2.944,1.907,1.907,0,0,0-1.184.924,6.59,6.59,0,0,0,1.027,8.1,8.093,8.093,0,0,0,5.83,2.481,7.68,7.68,0,0,0,3.45-.8c4.64-2.318,7.444-7.186,9.9-11.463l.371-.642c.13-.256.267-.5.4-.736s.293-.5.423-.753a1.457,1.457,0,0,1,1.243-.744h4.183a1.965,1.965,0,0,0,1.433-.589,1.928,1.928,0,0,0,.551-1.438" transform="translate(-41.521 -1037.902)"/><path class="a" d="M252.854,1069a1.961,1.961,0,0,0-2.729.484l-.031.046a41.158,41.158,0,0,1-2.846,3.8c-.966,1.189-1.725,1.5-1.915,1.4s-.207-.53.457-2.013a24.45,24.45,0,0,1,1.342-2.421,20.5,20.5,0,0,0,1.578-2.968c.639-1.583.983-3.772,0-5.133a3.074,3.074,0,0,0-2.76-1.275,7.577,7.577,0,0,0-4.586,2.07,4.161,4.161,0,0,0-4.52-2.164c-1.9.351-3.614,2.207-4.865,3.559l-.293.316a62.7,62.7,0,0,0-4.615,5.369l-.388.377c-1.566,1.566-4.183,4.183-6.151,4.773-.447.12-.767.12-.862,0s-.147-.856.423-2.053a42.928,42.928,0,0,1,3.571-5.852c1.2-1.711,1.613-2.8,1.424-3.789a3.97,3.97,0,0,0-1.984-2.422l-.147-.06h0c-2.027-.966-5.832.53-7.392,1.224a26.879,26.879,0,0,0-7.5,4.773c-1.9,1.711-4.175,5.7-3.528,8.76a4.291,4.291,0,0,0,3.037,3.2,6.68,6.68,0,0,0,2.013.317c2.036,0,4.157-.958,6.443-2.883a5.019,5.019,0,0,0,2.786,2.507c3.632,1.463,8.8-3.8,11.016-6.049l.1-.094a2.089,2.089,0,0,0,.379-.559,74.388,74.388,0,0,1,4.942-5.561l.112-.12a7.157,7.157,0,0,1,2.588-2c.258-.094.4-.077.432,0s.112.992-1.276,3.156a82.646,82.646,0,0,1-6.132,8.238,1.915,1.915,0,0,0-.371,1.934,2.062,2.062,0,0,0,1.536,1.351,1.673,1.673,0,0,0,1.6-.624,62.213,62.213,0,0,0,3.847-5.039c1.259-1.771,2.407-3.371,3.553-4.687a22.217,22.217,0,0,1,3.959-3.567l.311-.2a17.165,17.165,0,0,1-1.9,4.115c-.983,1.79-3.037,5.5-2.1,7.941a3.346,3.346,0,0,0,2.147,1.951,3.644,3.644,0,0,0,1.268.232c3.528,0,6.8-4.954,8.47-7.468l.2-.308a1.754,1.754,0,0,0-.394-2.449,1.8,1.8,0,0,0-.185-.117m-32.295-4.4c-.44.7-1.243,1.9-2.407,3.567l-.138.206c-1.924,2.712-4.563,5.988-7.875,6.844a1.676,1.676,0,0,1-1.5-.1,1.512,1.512,0,0,1-.233-1.308c.242-1.789,1.613-3.618,4.089-5.441,1.845-1.395,5.469-3.636,8.065-3.764" transform="translate(-38.938 -1035.404)"/><path class="b" d="M177.674,1072.5c-.518.18.526,1.1.862,2.079s-.138,1.617.379,1.437a1.8,1.8,0,0,0,.6-2.19c-.346-.966-1.342-1.505-1.845-1.326" transform="translate(-42.122 -1034.014)"/><path class="b" d="M62.894,1052.293c-.509.18.535,1.1.862,2.079s-.138,1.617.379,1.437a1.8,1.8,0,0,0,.6-2.181c-.344-.975-1.342-1.514-1.854-1.334" transform="translate(-55.717 -1036.408)"/><path class="b" d="M225.405,1040.936c-.518.188,1.993,1.454,2.726,3.319.371.966.371,1.711.862,1.506s.63-.856-.3-2.378-2.776-2.6-3.286-2.447" transform="translate(-36.461 -1037.75)"/><path class="b" d="M105.339,1042.557c-.794.274,2.95,1.908,3.968,4.457.518,1.309.474,2.318,1.268,2.036s1-1.257-.319-3.285-4.123-3.491-4.921-3.208" transform="translate(-50.686 -1037.561)"/><path class="b" d="M243.108,1062.111c-.285-.06.4,1.6.13,3.037-.138.736-.371,1.2-.086,1.257s.966-.8,1.044-2.061a2.49,2.49,0,0,0-1.087-2.237" transform="translate(-34.366 -1035.241)"/><rect class="c" width="215.909" height="58.159"/></g></g><path class="d" d="M220.545,1027a280.8,280.8,0,0,0-135.12,0q1.969-5.117,3.943-10.205-2.992-4.108-5.978-8.151a280.973,280.973,0,0,1,139.19,0q-2.986,4-5.979,8.072Q218.575,1021.845,220.545,1027Z"/><path class="a" d="M105.862,1017.826l-3.253-6.7,1.462-.323,2.141,4.623.219-5.145,1.7-.375,2.332,4.666-.006-5.18,1.438-.318-.154,7.453-1.515.335-2.578-4.976-.235,5.6Z"/><path class="a" d="M117.25,1015.582l-1.007-7.174,5.319-.746.17,1.214-3.87.543.223,1.59,3.6-.5.169,1.209-3.6.505.274,1.952,4.008-.562.17,1.208Z"/><path class="a" d="M127.135,1014.323l-.657-7.154,1.456-.134.546,5.94,3.622-.333.111,1.214Z"/><path class="a" d="M140.894,1010.664l1.439.377a3.185,3.185,0,0,1-.994,1.814,3.413,3.413,0,0,1-4.312-.191,3.777,3.777,0,0,1-1.065-2.644,3.967,3.967,0,0,1,.79-2.854,3.208,3.208,0,0,1,2.4-1.124,3.015,3.015,0,0,1,2.2.675,2.874,2.874,0,0,1,.808,1.3l-1.429.419a1.5,1.5,0,0,0-1.586-1.137,1.646,1.646,0,0,0-1.276.644,2.83,2.83,0,0,0-.406,1.9,3.031,3.031,0,0,0,.593,1.929,1.6,1.6,0,0,0,1.313.517,1.464,1.464,0,0,0,.983-.421A2.157,2.157,0,0,0,140.894,1010.664Z"/><path class="a" d="M146.514,1009.542a4.575,4.575,0,0,1,.311-1.861,3.4,3.4,0,0,1,.663-1,2.816,2.816,0,0,1,.929-.663,3.974,3.974,0,0,1,1.559-.3,3.4,3.4,0,0,1,2.572.965,4.439,4.439,0,0,1,.067,5.507,3.808,3.808,0,0,1-5.118.06A3.738,3.738,0,0,1,146.514,1009.542Zm1.506-.065a2.714,2.714,0,0,0,.588,1.858,1.953,1.953,0,0,0,2.878-.025,2.768,2.768,0,0,0,.541-1.9,2.723,2.723,0,0,0-.566-1.851,2.023,2.023,0,0,0-2.908.039A2.732,2.732,0,0,0,148.02,1009.477Z"/><path class="a" d="M157.874,1013.088l.223-7.241,2.188.067,1.161,4.98,1.451-4.9,2.194.068-.224,7.24-1.358-.042.176-5.7-1.613,5.655-1.407-.043-1.257-5.744-.176,5.7Z"/><path class="a" d="M169.473,1013.557l.527-7.225,5.356.39-.088,1.222-3.9-.284-.117,1.6,3.628.264-.089,1.217-3.627-.264-.143,1.966,4.036.294-.089,1.218Z"/><path class="a" d="M186.907,1015.327l.888-5.953-2.126-.317.181-1.212,5.693.849-.18,1.212-2.121-.316-.888,5.953Z"/><path class="a" d="M194.98,1013.014a4.639,4.639,0,0,1,.731-1.741,3.427,3.427,0,0,1,.877-.82,2.81,2.81,0,0,1,1.057-.431,3.991,3.991,0,0,1,1.586.064,3.4,3.4,0,0,1,2.281,1.531,4.44,4.44,0,0,1-1.2,5.375,3.379,3.379,0,0,1-2.706.406,3.414,3.414,0,0,1-2.29-1.526A3.741,3.741,0,0,1,194.98,1013.014Zm1.481.283a2.717,2.717,0,0,0,.145,1.944,1.855,1.855,0,0,0,1.269.937,1.833,1.833,0,0,0,1.538-.3,2.763,2.763,0,0,0,.962-1.721,2.722,2.722,0,0,0-.124-1.932,2.023,2.023,0,0,0-2.839-.631A2.737,2.737,0,0,0,196.461,1013.3Z"/></g></svg>